<?xml version="1.0" encoding="UTF-8" standalone="no"?>
<!DOCTYPE svg PUBLIC "-//W3C//DTD SVG 20010904//EN"
              "http://www.w3.org/TR/2001/REC-SVG-20010904/DTD/svg10.dtd">

<svg xmlns="http://www.w3.org/2000/svg"
     width="5.55556in" height="5.55556in"
     viewBox="0 0 500 500">
  <path id="Selection"
        fill="none" stroke="black" stroke-width="1"
        d="M 222.00,500.00
           C 222.00,500.00 222.00,323.00 222.00,323.00
             222.00,323.00 164.00,323.00 164.00,323.00
             164.00,323.00 164.00,236.00 164.00,236.00
             164.00,236.00 222.00,236.00 222.00,236.00
             222.00,236.00 222.00,178.00 222.00,178.00
             222.02,167.55 224.03,155.75 227.81,146.00
             231.06,137.60 234.42,131.20 239.90,124.00
             253.85,105.66 274.23,93.04 297.00,89.44
             311.12,87.21 325.73,88.00 340.00,88.00
             340.00,88.00 398.00,88.00 398.00,88.00
             398.00,88.00 398.00,175.00 398.00,175.00
             398.00,175.00 309.00,175.00 309.00,175.00
             309.00,175.00 309.00,236.00 309.00,236.00
             309.00,236.00 398.00,236.00 398.00,236.00
             398.00,236.00 386.75,302.00 386.75,302.00
             386.07,306.10 384.83,319.89 381.69,321.98
             379.83,323.21 376.20,323.00 374.00,323.00
             374.00,323.00 309.00,323.00 309.00,323.00
             309.00,323.00 309.00,500.00 309.00,500.00
             309.00,500.00 432.00,500.00 432.00,500.00
             465.06,499.95 499.95,469.91 500.00,436.00
             500.00,436.00 500.00,64.00 500.00,64.00
             499.95,31.46 466.03,0.38 434.00,0.00
             434.00,0.00 304.00,0.00 304.00,0.00
             304.00,0.00 70.00,0.00 70.00,0.00
             33.75,0.06 1.06,32.75 1.00,69.00
             1.00,69.00 1.00,431.00 1.00,431.00
             1.06,467.25 33.75,499.94 70.00,500.00
             70.00,500.00 222.00,500.00 222.00,500.00 Z
           M 415.00,260.00
           C 415.00,260.00 415.00,261.00 415.00,261.00
             415.00,261.00 414.00,260.00 414.00,260.00
             414.00,260.00 415.00,260.00 415.00,260.00 Z" />
</svg>
